<?xml version="1.0" encoding="UTF-8" standalone="no"?>
<svg xmlns:svg="http://www.w3.org/2000/svg" xmlns="http://www.w3.org/2000/svg" version="1.1" width="173.95584" height="30.431391">
  <defs>
    <marker refX="0" refY="0" orient="auto" id="Tri" overflow="visible">
      <path d="m5.77 0-8.65 5 0-10 8.65 5z" transform="scale(0.4,0.4)" style="fill-rule:evenodd;fill:#fff;stroke-width:1pt;stroke:#fff"/>
    </marker>
  </defs>
  <metadata/>
  <g transform="translate(-134.8078,-327.10013)">
    <rect width="32.647602" height="30.431391" ry="6.8571625" x="134.8078" y="327.10013" fill="#d40000"/>
    <path d="m151.63717 331.35194 0 22.95255" style="fill:#fff;stroke-width:1.02364945;stroke:#fff"/>
    <path d="m151.24025 337.80983 11.76548 0" style="fill:none;marker-end:url(#Tri);stroke-width:1.02364945;stroke:#fff"/>
    <path d="m136.2615 334.225 12.46827 0" style="fill:none;marker-end:url(#Tri);stroke-width:1.02364945;stroke:#fff"/>
    <path d="m136.2615 340.15237 12.46827 0" style="fill:none;marker-end:url(#Tri);stroke-width:1.02364945;stroke:#fff"/>
    <path d="m136.2615 348.65293 12.46827 0" style="fill:none;marker-end:url(#Tri);stroke-width:1.02364945;stroke:#fff"/>
    <g>
      <path d="m186.76179 349.12561c-0.40845 1.78034-1.1939 3.13654-2.35634 4.0686-1.16247 0.93207-2.66529 1.3981-4.50846 1.3981-2.42965 0-4.38279-0.80116-5.85942-2.40347-1.47664-1.61277-2.21496-3.74918-2.21496-6.40923 0-2.6705 0.73832-4.80167 2.21496-6.39352 1.47663-1.6023 3.42977-2.40345 5.85942-2.40347 1.05773 0.00002 2.11022 0.12569 3.15749 0.37702 1.04725 0.24088 2.09975 0.61266 3.15749 1.11533l0 4.27282-1.68085 0c-0.21994-1.46615-0.70168-2.53435-1.44522-3.20461-0.73309-0.67024-1.78559-1.00536-3.15749-1.00537-1.56043 0.00001-2.73859 0.60742-3.5345 1.82223-0.79593 1.20436-1.19389 3.01088-1.19388 5.41957-0.00001 2.40871 0.39272 4.22046 1.17817 5.43528 0.79591 1.21483 1.97931 1.82224 3.55021 1.82224 1.24623 0 2.24113-0.32465 2.98469-0.97396 0.74354-0.6493 1.25147-1.62848 1.52377-2.93756l2.32492 0m14.2951-0.23564 0-3.5345 0 3.5345 0-3.5345 0 3.5345 0-3.5345" fill="#de8787"/>
      <path d="m201.05689 348.88997 0-3.5345-3.72301 0c-1.43476 0.00001-2.50296 0.30895-3.20462 0.92683-0.70167 0.61789-1.0525 1.56566-1.05249 2.84331-0.00001 1.16246 0.35606 2.08405 1.0682 2.76477 0.71213 0.68072 1.67561 1.02108 2.89044 1.02107 1.20434 0.00001 2.17305-0.37177 2.90615-1.11533 0.74354-0.74355 1.11532-1.71226 1.11533-2.90615m2.89044-5.18393 0 8.76557 2.57626 0 0 1.66514-5.4667 0 0-1.80652c-0.63884 0.77497-1.37716 1.34573-2.21496 1.71227-0.83781 0.36654-1.817 0.54981-2.93756 0.54981-1.85366 0-3.32506-0.49221-4.4142-1.47664-1.08916-0.98442-1.63373-2.31444-1.63373-3.99006 0-1.72797 0.62312-3.06847 1.86936-4.02148 1.24623-0.953 3.00563-1.4295 5.27819-1.42951l4.0529 0 0-1.14675c-0.00001-1.26717-0.3875-2.24636-1.16246-2.93757-0.76451-0.70165-1.84319-1.05248-3.23603-1.05249-1.152 0.00001-2.06835 0.26183-2.74906 0.78544-0.68073 0.52364-1.10487 1.29862-1.27242 2.32492l-1.49235 0 0-3.37742c1.00537-0.42936 1.97932-0.74877 2.92186-0.95824 0.953-0.21991 1.87982-0.32987 2.78047-0.32989 2.31444 0.00002 4.07383 0.57601 5.2782 1.72798 1.2148 1.14153 1.82221 2.80667 1.82223 4.99544" fill="#de8787"/>
      <path d="m223.96048 349.12561c-0.40845 1.78034-1.19389 3.13654-2.35634 4.0686-1.16247 0.93207-2.66529 1.3981-4.50845 1.3981-2.42966 0-4.3828-0.80116-5.85943-2.40347-1.47664-1.61277-2.21495-3.74918-2.21495-6.40923 0-2.6705 0.73831-4.80167 2.21495-6.39352 1.47663-1.6023 3.42977-2.40345 5.85943-2.40347 1.05772 0.00002 2.11021 0.12569 3.15749 0.37702 1.04724 0.24088 2.09974 0.61266 3.15749 1.11533l0 4.27282-1.68086 0c-0.21994-1.46615-0.70168-2.53435-1.44522-3.20461-0.73309-0.67024-1.78559-1.00536-3.15749-1.00537-1.56042 0.00001-2.73859 0.60742-3.5345 1.82223-0.79592 1.20436-1.19388 3.01088-1.19388 5.41957 0 2.40871 0.39272 4.22046 1.17817 5.43528 0.79591 1.21483 1.97931 1.82224 3.55021 1.82224 1.24623 0 2.24113-0.32465 2.9847-0.97396 0.74354-0.6493 1.25146-1.62848 1.52376-2.93756l2.32492 0" fill="#de8787"/>
      <path d="m226.77237 354.13675 0-1.66514 2.60768 0 0-21.11278-2.76477 0 0-1.66514 5.65521 0 0 10.71347c0.53409-1.13102 1.22528-1.98454 2.07357-2.56055 0.85874-0.57597 1.85364-0.86397 2.98469-0.86399 1.84317 0.00002 3.19937 0.52889 4.06861 1.5866 0.86921 1.05775 1.30382 2.70718 1.30384 4.94831l0 8.95408 2.57626 0 0 1.66514-7.98012 0 0-1.66514 2.49771 0 0-8.04296c-0.00001-2.04215-0.25136-3.43501-0.75403-4.17857-0.49222-0.75402-1.37716-1.13103-2.6548-1.13105-1.3405 0.00002-2.36158 0.487-3.06324 1.46093-0.70167 0.97397-1.0525 2.393-1.05249 4.25712l0 7.63453 2.51342 0 0 1.66514-8.01154 0" fill="#de8787"/>
      <path d="m263.62546 346.09379-12.45716 0 0 0.12567c-0.00001 2.25162 0.42413 3.95341 1.27242 5.10539 0.84827 1.14152 2.09975 1.71228 3.75443 1.71228 1.26717 0 2.30396-0.32989 3.11036-0.98967 0.81685-0.67024 1.38761-1.6599 1.71227-2.96898l2.32492 0c-0.46081 1.83271-1.31433 3.20986-2.56055 4.13144-1.23578 0.92159-2.86427 1.38239-4.88547 1.38239-2.44012 0-4.40374-0.80116-5.89084-2.40347-1.47664-1.61277-2.21496-3.74918-2.21496-6.40923 0-2.63908 0.72785-4.76502 2.18354-6.37782 1.45569-1.61276 3.36694-2.41915 5.73375-2.41917 2.52389 0.00002 4.46132 0.78023 5.8123 2.34063 1.35095 1.54996 2.05261 3.8068 2.10499 6.77054m-3.40883-1.66514c-0.0629-1.9479-0.47652-3.41406-1.241-4.3985-0.75404-0.99488-1.84319-1.49233-3.26746-1.49234-1.33003 0.00001-2.37729 0.49746-3.14178 1.49234-0.7645 0.99491-1.23053 2.46107-1.39809 4.3985l9.04833 0" fill="#de8787"/>
    </g>
    <g>
      <path d="m272.68028 336.27572-1.7594 0 0-4.17857c1.12057-0.59691 2.24637-1.05247 3.37742-1.36667 1.1415-0.31416 2.25683-0.47124 3.34599-0.47127 2.44011 0.00003 4.36707 0.59173 5.78088 1.77511 1.41379 1.18342 2.12069 2.79097 2.1207 4.82263-0.00001 2.29352-1.60232 5.03734-4.80692 8.23147-0.25136 0.24088-0.43986 0.42415-0.56552 0.54981l-5.92226 5.92226 9.78665 0 0-2.89044 1.83794 0 0 5.4667-15.12768 0 0-1.71227 7.11614-7.10043c1.57088-1.57088 2.69144-3.01086 3.3617-4.31995 0.67024-1.31953 1.00536-2.70191 1.00537-4.14715-0.00001-1.58134-0.41368-2.81711-1.241-3.7073-0.81687-0.89015-1.94792-1.33523-3.39312-1.33526-1.49759 0.00003-2.65482 0.3718-3.47167 1.11534-0.81687 0.74357-1.29861 1.8589-1.44522 3.34599m25.5741 17.86103-8.1058 0 0-1.66514 2.60768 0 0-21.11278-2.78047 0 0-1.66514 5.67091 0 0 15.91312 7.03759-6.48778-2.40346 0 0-1.68085 7.55598 0 0 1.68085-2.85902 0-4.96401 4.58701 6.34639 8.76557 2.40347 0 0 1.66514-8.23147 0 0-1.66514 2.38775 0-4.99543-6.8648-2.27779 2.12071 0 4.74409 2.60768 0 0 1.66514 0 0-8.1058 0 0-1.66514 2.60768 0 0-21.11278-2.78047 0 0-1.66514 5.67091 0 0 15.91312 7.03759-6.48778-2.40346 0 0-1.68085 7.55598 0 0 1.68085-2.85902 0-4.96401 4.58701 6.34639 8.76557 2.40347 0 0 1.66514-8.23147 0 0-1.66514 2.38775 0-4.99543-6.8648-2.27779 2.12071 0 4.74409 2.60768 0 0 1.66514 0 0-8.1058 0 0-1.66514 2.60768 0 0-21.11278-2.78047 0 0-1.66514 5.67091 0 0 15.91312 7.03759-6.48778-2.40346 0 0-1.68085 7.55598 0 0 1.68085-2.85902 0-4.96401 4.58701 6.34639 8.76557 2.40347 0 0 1.66514-8.23147 0 0-1.66514 2.38775 0-4.99543-6.8648-2.27779 2.12071 0 4.74409 2.60768 0 0 1.66514" fill="#d40000"/>
      <path d="m298.25438 354.13675-8.1058 0 0-1.66514 2.60768 0 0-21.11278-2.78047 0 0-1.66514 5.67091 0 0 15.91312 7.03759-6.48778-2.40346 0 0-1.68085 7.55598 0 0 1.68085-2.85902 0-4.96401 4.58701 6.34639 8.76557 2.40347 0 0 1.66514-8.23147 0 0-1.66514 2.38775 0-4.99543-6.8648-2.27779 2.12071 0 4.74409 2.60768 0 0 1.66514" fill="#d40000"/>
    </g>
  </g>
</svg>